<svg width="165" height="77" viewBox="0 0 165 77" fill="none" xmlns="http://www.w3.org/2000/svg">
<path d="M6.66912 72.3251C6.66912 73.8257 5.59806 74.4688 4.09857 74.4688H1.09961V67.3945H4.09857C5.59806 67.3945 6.4549 68.252 6.4549 69.5382C6.4549 69.967 6.24069 70.3957 6.02648 70.8245C6.4549 71.0389 6.66912 71.682 6.66912 72.3251ZM2.59909 69.967H4.31279C4.74121 69.967 5.16963 69.7526 5.16963 69.3239C5.16963 68.8951 4.95542 68.6808 4.31279 68.6808H2.59909V69.967ZM5.16963 72.3251C5.16963 71.682 4.74121 71.4676 4.09857 71.4676H2.38488V73.3969H4.09857C4.95542 73.1826 5.16963 72.7538 5.16963 72.3251Z" fill="white"/>
<path d="M17.8078 67.3945L15.4515 71.4676V74.6832H13.952V71.682L11.5957 67.6089H13.3094L14.8089 70.1814L16.3084 67.6089H17.8078V67.3945Z" fill="white"/>
<path d="M29.375 71.0388C29.375 68.8951 30.8745 67.3945 33.0166 67.3945C34.5161 67.3945 35.5871 68.252 36.0156 69.3239L34.7303 69.967C34.5161 69.3239 33.8734 68.6808 33.0166 68.6808C31.7313 68.6808 30.8745 69.5382 30.8745 71.0388C30.8745 72.5394 31.7313 73.3969 33.0166 73.3969C33.8734 73.3969 34.5161 72.9682 34.7303 72.1107L36.0156 72.7538C35.5871 73.8257 34.5161 74.6832 33.0166 74.6832C31.0887 74.6832 29.375 72.9682 29.375 71.0388Z" fill="white"/>
<path d="M41.8008 67.3945H43.3003V70.3957H46.085V67.3945H47.5845V74.4688H46.085V71.682H43.3003V74.4688H41.8008V67.3945Z" fill="white"/>
<path d="M53.1504 71.0388C53.1504 68.8951 54.8641 67.3945 57.0062 67.3945C59.1483 67.3945 60.862 68.8951 60.862 71.0388C60.862 73.1826 59.1483 74.6832 57.0062 74.6832C54.8641 74.6832 53.1504 72.9682 53.1504 71.0388ZM59.3625 71.0388C59.3625 69.7526 58.2915 68.6808 57.0062 68.6808C55.7209 68.6808 54.6499 69.5382 54.6499 71.0388C54.6499 72.5394 55.7209 73.3969 57.0062 73.3969C58.2915 73.1826 59.3625 72.3251 59.3625 71.0388Z" fill="white"/>
<path d="M75.4286 67.3945L73.7149 74.4688H71.787L70.7159 69.3239L69.6449 74.4688H67.5028L65.7891 67.3945H67.5028L68.788 72.5395L69.8591 67.3945H71.5728L72.6438 72.5395L73.9291 67.3945H75.4286Z" fill="white"/>
<path d="M81.002 67.3945H83.3583C85.7146 67.3945 87.2141 68.8951 87.2141 71.0388C87.2141 73.1826 85.7146 74.6832 83.3583 74.6832H81.002V67.3945ZM83.3583 73.1826C84.6436 73.1826 85.7146 72.3251 85.7146 70.8245C85.7146 69.5383 84.8578 68.4664 83.3583 68.4664H82.5014V72.9682H83.3583V73.1826Z" fill="white"/>
<path d="M92.7812 67.3945H97.4939V68.6808H94.2807V70.3957H97.4939V71.682H94.2807V73.3969H97.4939V74.6832H92.7812V67.3945Z" fill="white"/>
<path d="M103.279 71.0388C103.279 68.8951 104.779 67.3945 106.921 67.3945C108.42 67.3945 109.491 68.252 109.92 69.3239L108.635 69.967C108.42 69.3239 107.778 68.6808 106.921 68.6808C105.636 68.6808 104.779 69.5382 104.779 71.0388C104.779 72.5394 105.636 73.3969 106.921 73.3969C107.778 73.3969 108.42 72.9682 108.635 72.1107L109.92 72.7538C109.491 73.8257 108.206 74.6832 106.707 74.6832C104.779 74.6832 103.279 72.9682 103.279 71.0388Z" fill="white"/>
<path d="M121.273 74.4688H119.56L117.632 71.0388L116.775 72.1107V74.4688H115.275V67.3945H116.775V70.1814L119.131 67.3945H120.845L118.703 69.967L121.273 74.4688Z" fill="white"/>
<path d="M164.546 19.1597L146.766 64.6064C145.266 68.4651 141.839 76.8256 130.7 76.8256C128.344 76.8256 125.987 76.3969 124.274 75.5394V66.3214C125.773 66.7502 127.701 66.9645 129.415 66.9645C133.913 66.9645 135.199 64.3921 136.055 62.2484L137.126 59.8903L121.061 18.9453H133.056L142.696 45.5274L152.335 18.9453H164.546V19.1597Z" fill="white"/>
<path d="M40.9466 62.4691C28.0939 62.4691 18.8828 53.2511 18.8828 40.3889C18.8828 27.9553 28.0939 18.3086 40.304 18.3086C52.0856 18.3086 61.2967 27.5266 61.2967 39.1026C61.2967 40.3889 61.2967 42.3182 60.6541 43.6044L60.4399 44.0332H31.9497C32.8066 48.535 36.234 51.1074 40.9466 51.1074C44.5882 51.1074 47.373 49.6068 48.8725 47.0344L49.0867 46.3913L59.1546 51.1074L58.9404 51.7505C56.5841 58.3961 49.3009 62.4691 40.9466 62.4691ZM47.8014 34.6008C47.1588 30.9565 44.1598 28.5984 40.0898 28.5984C36.234 28.5984 33.4492 30.7421 32.1639 34.6008H47.8014Z" fill="white"/>
<path d="M78.2186 4.37109H65.5801V62.4658H78.2186V4.37109Z" fill="white"/>
<path d="M13.3123 19.375H0.673828V62.0349H13.3123V19.375Z" fill="white"/>
<path d="M12.4546 8.0158L34.9469 0.512796C35.5895 0.298424 36.0179 0.727166 36.0179 1.37028L34.3042 12.0889C34.3042 12.3032 34.09 12.5176 33.8758 12.732L11.3836 20.235C10.7409 20.4493 10.3125 20.0206 10.3125 19.3775L12.0262 8.65891C12.0262 8.23017 12.2404 8.0158 12.4546 8.0158Z" fill="white"/>
<path d="M97.9278 62.4691C88.7167 62.4691 82.0762 57.3242 82.0762 49.8212C82.0762 43.6044 86.7888 39.317 95.7857 37.3877L107.996 34.8152V33.9577C107.996 31.1709 105.854 29.4559 102.426 29.4559C98.7847 29.4559 95.3573 30.7421 94.072 34.1721L93.8578 34.8152L83.3614 30.5278L83.5757 29.8847C86.1462 22.8104 93.4294 18.3086 102.426 18.3086C113.137 18.3086 120.634 24.7397 120.634 33.7433V61.3973H108.853V58.6104C105.854 61.1829 102.426 62.4691 97.9278 62.4691ZM98.1421 46.3913C96.2141 46.82 95.1431 47.8919 95.1431 49.6068C95.1431 51.7505 96.8568 52.8224 99.6415 52.8224C104.354 52.8224 107.996 49.3925 107.996 45.3194V44.2475L98.1421 46.3913Z" fill="white"/>
</svg>
